<svg id="Layer_1" data-name="Layer 1" xmlns="http://www.w3.org/2000/svg" width="166" height="53" viewBox="0 0 166 53">
  <defs>
    <style>
      .cls-1 {
        fill: #f28e2c;
      }

      .cls-2 {
        fill: #1b5792;
      }

      .cls-3 {
        fill: #fff;
      }
    </style>
  </defs>
  <title>header-logo</title>
  <g>
    <g>
      <path class="cls-1" d="M56,6.73c-.76,0-.89.41-.89,1.1V14a3,3,0,0,1-1.38,2.7,5.64,5.64,0,0,1-2,.82h-.28a.17.17,0,0,1,.07-.13,2.75,2.75,0,0,0,1.38-1.66A4.61,4.61,0,0,0,53.15,14V6.39h3.11v.27Z"/>
      <path class="cls-1" d="M66.68,6.66c-.76,0-.9.42-.9,1.11v5.65h2.28V14H65.71v.35a3.09,3.09,0,0,1-1.31,2.76,5.44,5.44,0,0,1-1.93.83h-.28c-.07,0,0-.07.07-.14a2.72,2.72,0,0,0,1.38-1.66,5.2,5.2,0,0,0,.28-2.07H62.47A6.06,6.06,0,0,1,58.74,13a3.39,3.39,0,0,1-1.42-2.76c0-2.42,2.21-3.93,5.52-3.93h4.08v.27Zm-7.45,3.59A3,3,0,0,0,62,13.47h1.86V7.28a3.9,3.9,0,0,0-1.31-.2C60.61,7.14,59.23,8.18,59.23,10.25Z"/>
      <path class="cls-1" d="M72.2,6.73c-.76,0-.9.48-.9,1.17v5.52h3.52V14H67v-.62h2.35V6.48h3.11v.21ZM70.13,4a1,1,0,0,1-.7,1.23,1,1,0,0,1-1.23-.71.92.92,0,0,1,0-.52.94.94,0,0,1,.88-1h.12A1,1,0,0,1,70.13,4Zm2.41,0a1,1,0,1,1-1-1,.94.94,0,0,1,1,.88Z"/>
      <path class="cls-1" d="M89,6.66c-.83,0-.9.48-.9,1.17v3a3,3,0,0,1-1,2.28,3.14,3.14,0,0,1-2.41,1,3,3,0,0,1-1.34-.41,1.6,1.6,0,0,1-1-1A2.74,2.74,0,0,1,80.05,14a3,3,0,0,1-2.49-1.11A3.32,3.32,0,0,1,75.22,14H73.79v-.62h.41a2.45,2.45,0,0,0,1.59-.62,3.15,3.15,0,0,0,.76-2V6.94h3.1v.27h-.21c-.82,0-1,.49-1,1.18V12a1.46,1.46,0,0,0,1.48,1.44h0A1.51,1.51,0,0,0,81.38,12V6.66h3.1v.28h-.27c-.76,0-.9.2-.9.89v4.35a1.4,1.4,0,0,0,1.38,1.24A1.43,1.43,0,0,0,86.14,12V6.39h3.1v.27Z"/>
      <path class="cls-1" d="M45.43,7.9c0,1.45-1.18,2.14-3.59,2.14A5.5,5.5,0,0,1,40,9.77c-.13-.07-.2-.28-.13-.56s.06-.41.27-.41A6.09,6.09,0,0,0,41.77,9a4.19,4.19,0,0,0,2.55-.69l-.07-.21c0-.07-.07-.14-.2-.14a1.35,1.35,0,0,0-.73.21,2.83,2.83,0,0,1-.76.14.79.79,0,0,1-.89-.67.86.86,0,0,1,0-.16A2.2,2.2,0,0,1,42.28,6a2.15,2.15,0,0,1,1.38-.76c.35,0,.48.21.48.62a1.35,1.35,0,0,1-.06.49,1.46,1.46,0,0,0-.07.55l.13.07C44.94,7.08,45.43,7.35,45.43,7.9Zm-2.21-.76V6.48a1,1,0,0,0-.83.42c0,.14.14.2.48.2Z"/>
      <path class="cls-1" d="M49.32,1.9V14.11h1.9V3.28c0-.69.14-1.17.9-1.17h.28V1.9Z"/>
      <path class="cls-1" d="M49.32,13.42H34a2.19,2.19,0,0,1-1.86-1,4.46,4.46,0,0,1-.62-2.28c0-1.86.76-3,2.48-3,1.24,0,2.14.42,2.21,1.8h.34c0-1.24,0-1.66-.41-2.07a3.5,3.5,0,0,0-2.48-.55,3.92,3.92,0,0,0-3,1.17,3.8,3.8,0,0,0-1.11,2.76,3.56,3.56,0,0,0,1.11,2.69,4.34,4.34,0,0,0,3,1.17H49.32Z"/>
    </g>
    <polygon class="cls-2" points="98.77 43.1 16.24 43.1 26.73 19.63 110.5 19.63 98.77 43.1"/>
    <polygon class="cls-1" points="122.99 24.88 116.5 37.85 110.84 26.46 97.87 52.48 84.9 52.48 110.84 0.52 122.99 24.88"/>
    <polygon class="cls-3" points="136.79 26.46 149.76 52.48 136.79 52.48 130.3 39.51 123.81 52.48 110.84 52.48 117.33 39.51 123.81 26.46 136.79 0.52 149.76 0.52 136.79 26.46"/>
    <g>
      <path class="cls-3" d="M28.32,25.78H38.66a2.06,2.06,0,0,1,1.66,1,2.92,2.92,0,0,1,.41,1.52v.18H29.49v2.27h8.83a2.26,2.26,0,0,1,2.28,1.94l.06.69v2.34A2.89,2.89,0,0,1,39.56,38a2.21,2.21,0,0,1-1,.34H28.32a1.77,1.77,0,0,0-.55-.13,2.4,2.4,0,0,1-1.24-1.11,4.1,4.1,0,0,1-.35-1.24H37.42V33.57H28.59a2.27,2.27,0,0,1-2.27-1.93L26.18,31V28.4a2.68,2.68,0,0,1,1.14-2.28A1.65,1.65,0,0,1,28.32,25.78Z"/>
      <path class="cls-3" d="M42,25.71H56.6l.07.07v2.7l-.07.07H51v9.79l-.07.07H47.7l-.07-.07V28.48H42L42,28.41,42,25.72Z"/>
      <path class="cls-3" d="M60.32,25.78h9.8a2.31,2.31,0,0,1,2.29,1.7,3.34,3.34,0,0,1,.13.83v7.38A2.69,2.69,0,0,1,71.37,38a2.34,2.34,0,0,1-1.24.34H60.32A2.24,2.24,0,0,1,58,36.38L58,35.69V28.33a2.9,2.9,0,0,1,1.11-2.28A2.67,2.67,0,0,1,60.32,25.78Zm1,2.76v7.24h7.86V28.54Z"/>
      <path class="cls-3" d="M73.86,25.71H86.14a2.23,2.23,0,0,1,2.18,1.86,2.28,2.28,0,0,1,.13.69v2.48a2.73,2.73,0,0,1-1,2.21,2.62,2.62,0,0,1-1.24.42h-1.8l4.49,4.9H84.41l-6.9-7.39h7.66v-2.4H77.24v9.8H73.92l-.06-.07Z"/>
    </g>
  </g>
</svg>
